<?xml version="1.0" encoding="utf-8"?>
<!-- Generator: Adobe Illustrator 21.1.0, SVG Export Plug-In . SVG Version: 6.00 Build 0)  -->
<!DOCTYPE svg PUBLIC "-//W3C//DTD SVG 1.1//EN" "http://www.w3.org/Graphics/SVG/1.1/DTD/svg11.dtd">
<svg version="1.1" id="Layer_1" xmlns="http://www.w3.org/2000/svg" xmlns:xlink="http://www.w3.org/1999/xlink" x="0px" y="0px"
	 viewBox="0 0 40 40" style="enable-background:new 0 0 40 40;" xml:space="preserve">
<style type="text/css">
	.st0{fill:#231F20;}
	.st1{fill:#FFF64C;}
	.st2{fill:#FAB461;}
	.st3{fill:#FDDFBB;}
	.st4{fill:#0D0D0D;}
	.st5{fill:#CCEDDC;}
	.st6{fill:#CCEFFC;}
	.st7{fill:#EC1C24;stroke:#231F20;stroke-width:4.0987;stroke-linecap:round;stroke-linejoin:round;}
	.st8{fill:#FFFFFF;}
	.st9{fill:#231F20;stroke:#231F20;stroke-width:0.65;}
	.st10{fill:#FFFFFF;stroke:#231F20;stroke-width:1.4622;stroke-linecap:round;stroke-linejoin:round;}
	.st11{fill:#FFFBD4;}
	.st12{opacity:0.7;}
	.st13{fill:#808080;stroke:#1A1A1A;stroke-width:3;stroke-linecap:round;stroke-linejoin:round;}
	.st14{fill:#FFCACA;}
	.st15{fill:#231F20;stroke:#1A1A1A;}
	.st16{fill:#EAE0D7;}
</style>
<g>
	<g>
		<g>
			<g>
				<path class="st0" d="M38.2,1.6c-0.7-0.7-1.7-1.1-2.7-1.1H4.3c-1.1,0-2,0.4-2.8,1.2C0.8,2.4,0.4,3.3,0.4,4.4v31.2
					c0,1.1,0.4,2,1.2,2.8c0.7,0.7,1.7,1.1,2.7,1.1h31.2c1.1,0,2-0.4,2.8-1.2c0.7-0.7,1.1-1.7,1.1-2.7V4.4C39.4,3.3,39,2.4,38.2,1.6z
					"/>
			</g>
		</g>
		<path class="st16" d="M36,3.9c-0.6-0.6-1.5-1-2.4-1H6.2c-0.9,0-1.8,0.3-2.4,1c-0.6,0.6-1,1.5-1,2.4v27.4c0,0.9,0.3,1.8,1,2.4
			c0.6,0.6,1.5,1,2.4,1h27.4c0.9,0,1.8-0.3,2.4-1c0.6-0.6,1-1.5,1-2.4V6.3C37,5.4,36.7,4.5,36,3.9z"/>
	</g>
	<g>
		<g>
			<polyline class="st0" points="25.9,12.4 28.3,12.4 25.1,32.7 14.4,32.7 11.2,12.4 24.3,12.4 			"/>
		</g>
		<g>
			<path class="st0" d="M12.3,11.2l-1.9,0l2.4-2.9c0.3-0.3,0.8-0.5,1.2-0.5h11.9c0.5,0,0.9,0.2,1.2,0.5l2.4,2.9H14.2"/>
		</g>
	</g>
</g>
</svg>
