<?xml version="1.0" encoding="utf-8"?>
<!-- Generator: Adobe Illustrator 21.1.0, SVG Export Plug-In . SVG Version: 6.00 Build 0)  -->
<!DOCTYPE svg PUBLIC "-//W3C//DTD SVG 1.1//EN" "http://www.w3.org/Graphics/SVG/1.1/DTD/svg11.dtd">
<svg version="1.1" id="Layer_1" xmlns="http://www.w3.org/2000/svg" xmlns:xlink="http://www.w3.org/1999/xlink" x="0px" y="0px"
	 viewBox="0 0 40 40" style="enable-background:new 0 0 40 40;" xml:space="preserve">
<style type="text/css">
	.st0{fill:#231F20;}
	.st1{fill:#FFF64C;}
	.st2{fill:#FAB461;}
	.st3{fill:#FDDFBB;}
	.st4{fill:#0D0D0D;}
	.st5{fill:#CCEDDC;}
	.st6{fill:#CCEFFC;}
	.st7{fill:#EC1C24;stroke:#231F20;stroke-width:4.0987;stroke-linecap:round;stroke-linejoin:round;}
	.st8{fill:#FFFFFF;}
	.st9{fill:#231F20;stroke:#231F20;stroke-width:0.65;}
	.st10{fill:#FFFFFF;stroke:#231F20;stroke-width:1.4622;stroke-linecap:round;stroke-linejoin:round;}
	.st11{fill:#FFFBD4;}
	.st12{opacity:0.7;}
	.st13{fill:#808080;stroke:#1A1A1A;stroke-width:3;stroke-linecap:round;stroke-linejoin:round;}
	.st14{fill:#FFCACA;}
	.st15{fill:#231F20;stroke:#1A1A1A;}
	.st16{fill:#EAE0D7;}
</style>
<g>
	<g>
		<g>
			<g>
				<path class="st0" d="M38.4,1.6c-0.7-0.7-1.7-1.1-2.7-1.1H4.5c-1.1,0-2,0.4-2.8,1.2C1,2.4,0.6,3.3,0.6,4.4v31.2
					c0,1.1,0.4,2,1.2,2.8c0.7,0.7,1.7,1.1,2.7,1.1h31.2c1.1,0,2-0.4,2.8-1.2c0.7-0.7,1.1-1.7,1.1-2.7V4.4
					C39.6,3.3,39.2,2.4,38.4,1.6z"/>
			</g>
		</g>
		<path class="st16" d="M36.1,3.8c-0.6-0.6-1.5-1-2.4-1H6.4c-0.9,0-1.8,0.3-2.4,1C3.3,4.5,3,5.3,3,6.3v27.4c0,0.9,0.3,1.8,1,2.4
			c0.6,0.6,1.5,1,2.4,1h27.4c0.9,0,1.8-0.3,2.4-1c0.6-0.6,1-1.5,1-2.4V6.3C37.2,5.3,36.8,4.5,36.1,3.8z"/>
	</g>
	<g>
		<polygon class="st0" points="33.8,12.8 31.4,32.7 23.4,32.7 21,12.8 30.8,12.8 32.7,5.7 33.8,6 32,12.8 		"/>
		<path class="st0" d="M19.8,24.4c0,0,0.3-2.9-3.9-2.9H9.3c-4.2,0-3.9,2.9-3.9,2.9H19.8z"/>
		<path class="st0" d="M5.5,29.8c0,0-0.3,2.9,3.9,2.9H16c4.2,0,3.9-2.9,3.9-2.9H5.5z"/>
		<path class="st0" d="M19.2,28.4c0.7,0,1.2-0.6,1.2-1.3c0-0.7-0.6-1.3-1.2-1.3H6c-0.7,0-1.2,0.6-1.2,1.3c0,0.7,0.6,1.3,1.2,1.3
			H19.2z"/>
	</g>
</g>
</svg>
