<?xml version="1.0" encoding="utf-8"?>
<!-- Generator: Adobe Illustrator 21.1.0, SVG Export Plug-In . SVG Version: 6.00 Build 0)  -->
<!DOCTYPE svg PUBLIC "-//W3C//DTD SVG 1.1//EN" "http://www.w3.org/Graphics/SVG/1.1/DTD/svg11.dtd">
<svg version="1.1" id="Layer_1" xmlns="http://www.w3.org/2000/svg" xmlns:xlink="http://www.w3.org/1999/xlink" x="0px" y="0px"
	 viewBox="0 0 40 40" style="enable-background:new 0 0 40 40;" xml:space="preserve">
<style type="text/css">
	.st0{fill:#231F20;}
	.st1{fill:#FFF64C;}
	.st2{fill:#FAB461;}
	.st3{fill:#FDDFBB;}
	.st4{fill:#0D0D0D;}
	.st5{fill:#CCEDDC;}
	.st6{fill:#CCEFFC;}
	.st7{fill:#EC1C24;stroke:#231F20;stroke-width:4.0987;stroke-linecap:round;stroke-linejoin:round;}
	.st8{fill:#FFFFFF;}
	.st9{fill:#231F20;stroke:#231F20;stroke-width:0.65;}
	.st10{fill:#FFFFFF;stroke:#231F20;stroke-width:1.4622;stroke-linecap:round;stroke-linejoin:round;}
	.st11{fill:#FFFBD4;}
	.st12{opacity:0.7;}
	.st13{fill:#808080;stroke:#1A1A1A;stroke-width:3;stroke-linecap:round;stroke-linejoin:round;}
	.st14{fill:#FFCACA;}
	.st15{fill:#231F20;stroke:#1A1A1A;}
	.st16{fill:#EAE0D7;}
</style>
<g>
	<g>
		<path class="st0" d="M38.4,1.8c-0.7-0.7-1.7-1.1-2.7-1.1H4.4c-1.1,0-2,0.4-2.8,1.2C0.9,2.5,0.5,3.5,0.5,4.5v31.2
			c0,1.1,0.4,2,1.2,2.8c0.7,0.7,1.7,1.1,2.7,1.1h31.2c1.1,0,2-0.4,2.8-1.2c0.7-0.7,1.1-1.7,1.1-2.7V4.5C39.5,3.5,39.2,2.5,38.4,1.8z
			"/>
		<g>
			<path class="st1" d="M36.1,4c-0.6-0.6-1.4-1-2.4-1H6.4c-0.9,0-1.7,0.3-2.4,1c-0.6,0.6-1,1.4-1,2.4v27.4c0,0.9,0.3,1.8,1,2.4
				c0.6,0.6,1.5,1,2.4,1h27.4c0.9,0,1.7-0.3,2.4-1c0.6-0.6,1-1.4,1-2.4V6.5C37.1,5.5,36.8,4.7,36.1,4z"/>
		</g>
	</g>
	<rect x="5.9" y="6.5" class="st1" width="29.2" height="26.7"/>
	<g>
		<path class="st0" d="M28.3,21.5c-1.4,1.2-3.5,1.8-6.1,1.8h-5.1v8.8h-5.1V7.7h10.5c2.4,0,4.3,0.6,5.8,1.9c1.4,1.3,2.1,3.2,2.1,5.8
			C30.4,18.3,29.7,20.3,28.3,21.5z M24.4,12.7c-0.7-0.5-1.6-0.8-2.7-0.8h-4.6v7.2h4.6c1.2,0,2.1-0.3,2.7-0.9c0.6-0.6,1-1.5,1-2.8
			C25.4,14.2,25.1,13.3,24.4,12.7z"/>
	</g>
</g>
</svg>
